<svg width="399" height="251" viewBox="0 0 399 251" fill="none" xmlns="http://www.w3.org/2000/svg">
<path d="M99.0717 210.02L108.269 204.677L91.3612 186.272L95.1801 184.07L94.4947 183.676L83.5273 190.052L89.8597 204.579L99.0717 210.02Z" fill="#151515"/>
<path d="M149.658 215.359L161.67 208.392L161.344 208.194L149.43 215.129L149.658 215.359Z" fill="#151515"/>
<path d="M48.8308 180.718L22.4896 153.111L0 166.191L62.1157 234.093L88.3264 249.343L69.9169 230.182L48.8308 180.718Z" fill="#151515"/>
<path d="M140.165 230.474L139.409 229.63L139.18 229.399L151.094 222.465L151.682 222.103L131.789 199.501L121.677 205.4L119.205 206.841L118.813 206.414L102.605 188.048L84.931 198.341L81.1121 200.543L98.0201 218.948L83.3643 227.46L83.1358 226.935L79.6106 218.849L73.2782 204.323L47.3287 144.9L23.207 158.934L38.5809 194.988L49.1338 219.556L62.0438 234L89.3442 249.851L128.394 226.751L137.155 231.916L146.218 237.279L140.165 230.474Z" fill="#5E17FE" stroke="#151515" stroke-width="0.5" stroke-linecap="round" stroke-linejoin="round"/>
<path d="M176.035 231.069L150.379 216.181L166.765 234.389L153.937 241.849L155.732 242.868L176.035 231.069Z" fill="#151515"/>
<path d="M57.6646 130.73L47.3206 144.875M47.3206 144.875L36.3438 151.309M47.3206 144.875L83.5597 227.597L98.0508 218.874L81.1739 200.474M81.1739 200.474L85.2623 194.001M81.1739 200.474L86.6029 197.368M102.575 188.01L112.806 173.938M102.575 188.01L96.3198 191.627M102.575 188.01L119.196 206.893M119.196 206.893L129.477 192.507M119.196 206.893L131.586 199.663M131.586 199.663L151.636 222.079M131.586 199.663L142.246 185.29M151.636 222.079L139.325 229.36M151.636 222.079L154.31 218.116M139.325 229.36L146.099 237.234M139.325 229.36L149.501 215.101" stroke="#151515" stroke-width="0.5"/>
<path d="M150.415 216.204L149.659 215.359L149.43 215.129L161.344 208.194L161.932 207.833L142.039 185.23L131.927 191.129L129.455 192.571L129.063 192.143L112.855 173.778L95.181 184.07L91.3621 186.272L108.27 204.677L93.6143 213.19L93.3858 212.664L89.8606 204.579L83.5282 190.052L57.5787 130.63L33.457 144.664L48.8309 180.718L69.917 230.182L88.3264 249.343L89.3989 249.987L128.412 226.819L153.935 241.849L166.763 234.389L150.415 216.204Z" fill="#5E17FE" fill-opacity="0.6" stroke="#151515" stroke-width="0.5" stroke-linecap="round" stroke-linejoin="round"/>
<path d="M33.4563 144.664L23.207 159.191L47.4587 217.65L62.115 234.093L89.4355 250L69.9162 230.182L33.4563 144.664Z" fill="#5E17FE" fill-opacity="0.6" stroke="#151515" stroke-width="0.5" stroke-linecap="round" stroke-linejoin="round"/>
<path d="M91.2957 186.174L85.1953 194.099L89.8603 204.579L93.5715 213.528L108.27 204.677L91.2957 186.174Z" fill="#5E17FE" fill-opacity="0.6" stroke="#151515" stroke-width="0.5" stroke-linecap="round" stroke-linejoin="round"/>
<path d="M161.931 207.833L153.351 219.414L149.43 215.129L161.931 207.833Z" fill="#5E17FE" stroke="#151515" stroke-width="0.5" stroke-linecap="round" stroke-linejoin="round"/>
<path d="M166.761 234.389L164.385 237.655L155.745 242.72L153.934 241.849L166.761 234.389Z" fill="#5E17FE" stroke="#151515" stroke-width="0.5" stroke-linecap="round" stroke-linejoin="round"/>
<path d="M22.4896 153.111V190.808L0 166.191L22.4896 153.111Z" fill="#595959"/>
<path d="M322.037 80.3897L331.234 75.0476L314.326 56.6425L318.145 54.4404L317.46 54.046L306.492 60.4221L312.825 74.949L322.037 80.3897Z" fill="#151515"/>
<path d="M372.623 85.7293L384.635 78.7616L384.309 78.5645L372.395 85.4992L372.623 85.7293Z" fill="#151515"/>
<path d="M271.796 51.0885L245.454 23.4808L222.965 36.5616L285.081 104.463L311.291 119.713L292.882 100.552L271.796 51.0885Z" fill="#151515"/>
<path d="M363.13 100.845L362.374 100L362.145 99.77L374.059 92.8352L374.647 92.4737L354.754 69.8711L344.642 75.7703L342.169 77.2118L341.778 76.7845L325.57 58.4187L307.896 68.7113L304.077 70.9134L320.985 89.3185L306.329 97.8309L306.101 97.305L302.575 89.2199L296.243 74.693L270.294 15.2708L246.172 29.3047L261.546 65.359L272.099 89.9264L285.009 104.37L312.309 120.222L351.359 97.1214L360.12 102.287L369.183 107.649L363.13 100.845Z" fill="#FFAD28" stroke="#151515" stroke-width="0.5" stroke-linecap="round" stroke-linejoin="round"/>
<path d="M399 101.439L373.344 86.5509L389.73 104.759L376.902 112.219L378.697 113.238L399 101.439Z" fill="#151515"/>
<path d="M280.629 1.10022L270.285 15.2457M270.285 15.2457L259.309 21.6794M270.285 15.2457L306.525 97.9674L321.016 89.2439L304.139 70.844M304.139 70.844L308.227 64.3714M304.139 70.844L309.568 67.738M325.54 58.3808L335.771 44.3084M325.54 58.3808L319.285 61.9979M325.54 58.3808L342.16 77.2633M342.16 77.2633L352.442 62.8776M342.16 77.2633L354.55 70.033M354.55 70.033L374.601 92.4494M354.55 70.033L365.211 55.6604M374.601 92.4494L362.29 99.7301M374.601 92.4494L377.275 88.4866M362.29 99.7301L369.064 107.605M362.29 99.7301L372.466 85.4717" stroke="#151515" stroke-width="0.5"/>
<path d="M373.38 86.574L372.624 85.7293L372.395 85.4992L384.309 78.5645L384.897 78.2029L365.004 55.6004L354.892 61.4995L352.42 62.941L352.028 62.5138L335.82 44.148L318.146 54.4406L314.327 56.6426L331.235 75.0478L316.579 83.5601L316.351 83.0343L312.825 74.9492L306.493 60.4223L280.544 1L256.422 15.0339L271.796 51.0882L292.882 100.552L311.291 119.713L312.364 120.357L351.376 97.1898L376.9 112.22L389.728 104.759L373.38 86.574Z" fill="#FFAD28" fill-opacity="0.6" stroke="#151515" stroke-width="0.5" stroke-linecap="round" stroke-linejoin="round"/>
<path d="M256.421 15.0341L246.172 29.561L270.424 88.0204L285.08 104.463L312.4 120.371L292.881 100.552L256.421 15.0341Z" fill="#FFAD28" fill-opacity="0.6" stroke="#151515" stroke-width="0.5" stroke-linecap="round" stroke-linejoin="round"/>
<path d="M314.257 56.5442L308.156 64.4695L312.821 74.9491L316.532 83.8988L331.231 75.0477L314.257 56.5442Z" fill="#FFAD28" fill-opacity="0.6" stroke="#151515" stroke-width="0.5" stroke-linecap="round" stroke-linejoin="round"/>
<path d="M384.896 78.2029L376.316 89.7841L372.395 85.4992L384.896 78.2029Z" fill="#FFAD28" stroke="#151515" stroke-width="0.5" stroke-linecap="round" stroke-linejoin="round"/>
<path d="M389.726 104.759L387.35 108.026L378.71 113.09L376.898 112.22L389.726 104.759Z" fill="#FFAD28" stroke="#151515" stroke-width="0.5" stroke-linecap="round" stroke-linejoin="round"/>
<path d="M245.454 23.4808V61.1785L222.965 36.5616L245.454 23.4808Z" fill="#595959"/>
<path fill-rule="evenodd" clip-rule="evenodd" d="M240.681 191.399C244.33 190.774 247.774 189.409 250.942 187.26C270.82 173.741 268.408 137.255 245.532 99.2591C221.94 59.8852 189.549 40.5263 168.596 54.7009C167.313 55.5683 166.124 56.5266 165.027 57.5704C185.82 50.6107 214.01 69.8637 235.366 105.329C248.857 127.74 255.212 149.559 254.104 166.621C253.967 175.466 250.549 183.94 244.523 190.377C243.306 190.777 242.024 191.117 240.681 191.399ZM184.005 89.5979C179.222 98.2926 183.388 114.841 195.088 133.547C206.118 151.182 217.783 160.94 226.852 161.041C225.949 162.681 224.736 164.04 223.211 165.079C221.863 165.988 220.324 166.572 218.715 166.785C209.362 168.196 196.653 158.156 184.922 139.519C183.032 136.533 181.37 133.613 179.904 130.758C176.32 124.244 173.78 117.202 172.376 109.89C171.008 101.359 172.637 94.8296 177.525 91.5156C179.472 90.2087 181.653 89.5838 184.005 89.5979Z" fill="#E84142" fill-opacity="0.6"/>
<path d="M250.942 187.26L251.082 187.467L251.082 187.466L250.942 187.26ZM240.681 191.399L240.63 191.154C240.497 191.182 240.41 191.312 240.436 191.445C240.461 191.579 240.589 191.668 240.724 191.645L240.681 191.399ZM245.532 99.2591L245.318 99.3876L245.318 99.388L245.532 99.2591ZM168.596 54.7009L168.736 54.908L168.596 54.7009ZM165.027 57.5704L164.855 57.3893C164.77 57.47 164.753 57.5989 164.813 57.6993C164.874 57.7997 164.996 57.8446 165.107 57.8074L165.027 57.5704ZM235.366 105.329L235.58 105.2L235.58 105.2L235.366 105.329ZM254.104 166.621L253.854 166.605L253.854 166.617L254.104 166.621ZM244.523 190.377L244.601 190.614C244.641 190.601 244.677 190.578 244.706 190.548L244.523 190.377ZM184.005 89.5979L184.224 89.7184C184.266 89.6412 184.265 89.5473 184.22 89.4713C184.176 89.3953 184.094 89.3484 184.006 89.3479L184.005 89.5979ZM195.088 133.547L194.876 133.68L195.088 133.547ZM226.852 161.041L227.071 161.162C227.114 161.085 227.113 160.991 227.068 160.915C227.024 160.839 226.943 160.792 226.855 160.791L226.852 161.041ZM223.211 165.079L223.351 165.286L223.352 165.286L223.211 165.079ZM218.715 166.785L218.682 166.537L218.677 166.538L218.715 166.785ZM184.922 139.519L185.134 139.386L185.133 139.385L184.922 139.519ZM179.904 130.758L180.126 130.644L180.123 130.638L179.904 130.758ZM172.376 109.89L172.129 109.93L172.131 109.937L172.376 109.89ZM177.525 91.5156L177.386 91.308L177.385 91.3087L177.525 91.5156ZM250.802 187.053C247.664 189.182 244.253 190.533 240.639 191.152L240.724 191.645C244.407 191.014 247.885 189.636 251.082 187.467L250.802 187.053ZM245.318 99.388C256.742 118.362 263.046 136.944 264.02 152.454C264.995 167.967 260.639 180.363 250.801 187.053L251.082 187.466C261.123 180.638 265.5 168.031 264.519 152.423C263.539 136.811 257.199 118.152 245.747 99.1301L245.318 99.388ZM168.736 54.908C179.102 47.8952 192.328 49.1523 205.948 57.1151C219.567 65.0774 233.536 79.7247 245.318 99.3876L245.747 99.1306C233.936 79.4195 219.913 64.7004 206.2 56.6835C192.489 48.6671 179.042 47.3321 168.455 54.4939L168.736 54.908ZM165.2 57.7515C166.287 56.7173 167.465 55.7677 168.736 54.908L168.455 54.4939C167.162 55.369 165.962 56.336 164.855 57.3893L165.2 57.7515ZM235.58 105.2C224.889 87.4455 212.479 73.7355 200.126 65.3336C187.777 56.9344 175.448 53.8188 164.948 57.3333L165.107 57.8074C175.4 54.3623 187.562 57.3933 199.845 65.7471C212.123 74.0981 224.487 87.7474 235.152 105.458L235.58 105.2ZM254.353 166.637C255.465 149.507 249.087 127.637 235.58 105.2L235.152 105.458C248.627 127.843 254.958 149.611 253.854 166.605L254.353 166.637ZM244.706 190.548C250.775 184.065 254.216 175.532 254.354 166.625L253.854 166.617C253.718 175.401 250.324 183.815 244.341 190.206L244.706 190.548ZM240.733 191.643C242.084 191.36 243.375 191.018 244.601 190.614L244.445 190.139C243.237 190.536 241.964 190.874 240.63 191.154L240.733 191.643ZM183.786 89.4774C181.35 93.9065 181.211 100.293 183.123 107.879C185.038 115.474 189.017 124.312 194.876 133.68L195.3 133.415C189.46 124.076 185.506 115.287 183.608 107.757C181.708 100.219 181.878 93.984 184.224 89.7184L183.786 89.4774ZM194.876 133.68C200.4 142.511 206.09 149.381 211.543 154.059C216.991 158.733 222.23 161.24 226.85 161.291L226.855 160.791C222.405 160.742 217.277 158.319 211.868 153.679C206.465 149.044 200.806 142.218 195.3 133.415L194.876 133.68ZM226.634 160.921C225.748 162.528 224.561 163.857 223.071 164.873L223.352 165.286C224.911 164.223 226.15 162.835 227.071 161.162L226.634 160.921ZM223.072 164.872C221.755 165.76 220.253 166.329 218.682 166.538L218.747 167.033C220.395 166.815 221.97 166.217 223.351 165.286L223.072 164.872ZM218.677 166.538C214.103 167.228 208.658 165.121 202.867 160.475C197.083 155.834 190.99 148.689 185.134 139.386L184.711 139.652C190.586 148.986 196.713 156.179 202.554 160.865C208.388 165.546 213.974 167.753 218.752 167.033L218.677 166.538ZM185.133 139.385C183.247 136.406 181.589 133.492 180.126 130.644L179.681 130.872C181.151 133.734 182.817 136.66 184.711 139.653L185.133 139.385ZM180.123 130.638C176.552 124.147 174.02 117.129 172.622 109.843L172.131 109.937C173.539 117.274 176.088 124.342 179.685 130.879L180.123 130.638ZM172.623 109.85C171.26 101.354 172.899 94.9541 177.665 91.7225L177.385 91.3087C172.375 94.7051 170.755 101.364 172.13 109.93L172.623 109.85ZM177.664 91.7232C179.568 90.4456 181.699 89.834 184.003 89.8479L184.006 89.3479C181.607 89.3335 179.376 89.9719 177.386 91.308L177.664 91.7232Z" fill="#151515"/>
<path d="M172.312 109.957C173.718 117.281 176.263 124.335 179.853 130.86C183.443 132.635 187.164 134.607 190.918 136.809C212.396 149.364 222.841 160.933 218.728 166.947C220.337 166.744 221.878 166.17 223.232 165.271C229.499 161.031 230.511 151.369 226.496 138.978C220.948 135.001 214.713 130.991 207.859 127.048C196.483 120.403 184.596 114.688 172.312 109.957Z" fill="#151515"/>
<path d="M254.175 166.717C254.038 175.577 250.614 184.064 244.578 190.512C246.274 189.971 247.913 189.267 249.474 188.409C257.863 183.544 259.005 175.854 254.175 166.717Z" fill="#151515"/>
<path d="M150.806 120.751L150.806 120.75C148.6 114.68 146.976 108.412 145.954 102.031C143.187 83.8317 147.172 68.7064 158.545 61.0291C168.994 53.9875 182.202 55.2475 195.799 63.2231C209.396 71.1987 223.34 85.8704 235.191 105.55C248.688 127.972 255.029 149.777 253.924 166.799L253.924 166.799L253.923 166.812C253.788 175.588 250.405 183.997 244.438 190.393C233.325 194.022 216.749 192.659 197.852 187.097C187.188 179.019 177.912 169.233 170.395 158.13L170.392 158.126C169.023 156.19 167.687 154.221 166.351 152.153L166.351 152.153C159.983 142.325 154.767 131.787 150.806 120.751ZM223.369 165.478L223.371 165.478C226.579 163.29 228.425 159.732 228.958 155.177C229.49 150.626 228.713 145.067 226.666 138.834L226.666 138.833C224.22 131.516 220.925 124.515 216.849 117.976C210 106.736 202.634 98.4301 195.735 93.7564C188.842 89.0864 182.349 88.0065 177.328 91.3771L177.327 91.3778C172.309 94.7797 170.687 101.45 172.063 110.029L172.063 110.029L172.064 110.037C173.475 117.385 176.028 124.463 179.629 131.01C181.101 133.875 182.769 136.806 184.665 139.802C190.55 149.151 196.687 156.356 202.538 161.05C208.381 165.737 213.975 167.948 218.76 167.228C220.41 167.009 221.987 166.41 223.369 165.478Z" fill="#E84142" stroke="#151515" stroke-width="0.5"/>
<path d="M245.374 99.4696L245.375 99.47C256.817 118.476 263.132 137.089 264.108 152.625C265.084 168.164 260.721 180.58 250.867 187.282C241.018 193.963 228.445 193.02 215.297 185.705C202.149 178.389 188.468 164.719 176.47 146.041C164.082 126.689 156.919 107.411 155.467 91.2131C154.015 75.0121 158.275 61.9435 168.664 54.9157C179.048 47.8911 192.296 49.1504 205.939 57.1265C219.581 65.1022 233.573 79.7739 245.374 99.4696ZM187.511 85.2315L187.401 85.3058V85.4386V85.4706C182.47 88.8611 180.88 95.4058 182.21 103.793C183.552 112.251 187.87 122.661 194.849 133.819C201.827 144.976 209.072 153.012 215.776 157.456C222.477 161.898 228.699 162.783 233.554 159.496C238.404 156.213 240.154 149.82 239.027 141.553C237.899 133.278 233.882 123.056 227.099 111.995C220.315 100.935 212.916 92.5885 205.978 87.8289C199.048 83.0753 192.504 81.8578 187.511 85.2315Z" fill="#E84142" fill-opacity="0.6" stroke="#151515" stroke-width="0.5"/>
<path d="M134.191 126.981C134.205 126.002 134.483 125.045 134.995 124.211C135.506 123.378 136.232 122.7 137.096 122.249C141.291 120.389 145.958 119.894 150.446 120.835C148.235 114.75 146.606 108.466 145.583 102.069C129.001 98.782 115.129 99.2093 106.413 104.205C90.093 113.736 101.843 134.624 134.19 156.546L134.191 126.981Z" fill="#151515"/>
<path d="M170.187 158.27C167.478 156.824 164.736 155.312 161.962 153.636C144.009 142.954 134.086 133.226 134.184 126.981V156.561H134.38C137.644 158.796 141.235 161.064 144.988 163.134C157.461 170.676 170.783 177.593 184.373 182.823C189.236 184.597 193.708 186.109 197.723 187.26C187.153 179.303 177.712 169.186 170.187 158.27Z" fill="#595959"/>
</svg>
