<svg width="60" height="60" viewBox="0 0 60 60" fill="none" xmlns="http://www.w3.org/2000/svg">
<path d="M57.3735 40.9258C57.3736 42.3532 56.9971 43.7553 56.2822 44.9907C55.5673 46.2261 54.5392 47.2511 53.3016 47.9623L34.2303 58.921C33 59.628 31.6059 60 30.187 60C28.7681 60 27.3739 59.628 26.1437 58.921L7.07235 47.9623C5.8347 47.2512 4.80651 46.2262 4.09152 44.9908C3.37653 43.7554 3.00003 42.3532 3.00002 40.9258V19.0742C2.99999 17.6468 3.37643 16.2447 4.09135 15.0093C4.80626 13.7739 5.83437 12.7488 7.07194 12.0377L26.1433 1.07897C27.3735 0.372025 28.7676 0 30.1866 0C31.6055 0 32.9996 0.372025 34.2299 1.07897L53.3012 12.0377C54.5388 12.7488 55.567 13.7738 56.282 15.0092C56.997 16.2446 57.3735 17.6468 57.3735 19.0742L57.3735 40.9258Z" fill="#1D86CC"/>
<path d="M27.8361 4.12932L9.00829 15.004C8.29249 15.4173 7.69808 16.0118 7.28494 16.7276C6.8718 17.4435 6.65449 18.2555 6.65479 19.082L6.66657 40.8554C6.6671 41.6806 6.88458 42.4913 7.29723 43.2059C7.70987 43.9206 8.30315 44.5143 9.0176 44.9273L27.8674 55.8239C28.5829 56.237 29.3946 56.4546 30.2208 56.4546C31.047 56.4546 31.8588 56.237 32.5743 55.8239L51.4022 44.9525C52.118 44.5392 52.7123 43.9447 53.1255 43.2289C53.5386 42.513 53.7559 41.701 53.7556 40.8745L53.7439 19.1011C53.7433 18.2759 53.5257 17.4654 53.1131 16.7508C52.7004 16.0362 52.1072 15.4426 51.3928 15.0296L32.5431 4.13257C31.8275 3.71945 31.0158 3.50195 30.1896 3.50195C29.3633 3.50195 28.5516 3.71945 27.8361 4.13257V4.12932Z" fill="white"/>
<path d="M21.6214 48.4648C21.6504 48.3229 21.7139 48.1904 21.8064 48.0789C27.4385 38.5222 33.0716 28.9658 38.7057 19.4099C38.784 19.2772 38.8566 19.1408 38.9231 19.022C38.8736 18.9355 38.8172 18.9534 38.7694 18.9534C36.3623 18.9619 33.9552 18.9773 31.5466 18.9745C31.4436 18.9726 31.3426 19.0024 31.2571 19.0597C31.1716 19.117 31.1056 19.1991 31.0682 19.295C29.2525 22.2978 27.4344 25.2997 25.6141 28.3008C21.7579 34.663 17.9014 41.0251 14.0444 47.3871C14.0103 47.4435 13.9745 47.4987 13.9441 47.5567C13.8759 47.6882 13.7985 47.7089 13.6601 47.6285C13.0616 47.2751 12.4566 46.933 11.8207 46.5674L28.9849 19.039C28.948 18.927 28.8721 18.955 28.8137 18.953C27.8938 18.9254 26.9736 18.8856 26.0545 18.8775C24.7633 18.8393 23.4766 19.0466 22.2628 19.4886C21.1575 19.8979 20.2181 20.6606 19.5905 21.6583C16.4544 26.5497 13.3064 31.4336 10.1465 36.3099C10.097 36.387 10.0443 36.4625 9.99318 36.5387C9.81221 36.5387 9.83893 36.3894 9.82229 36.2851C9.80628 36.1281 9.80255 35.9701 9.811 35.8124C9.811 30.4189 9.82966 25.0254 9.79436 19.6322C9.76601 19.1675 9.8777 18.705 10.1151 18.3045C10.3526 17.904 10.7048 17.584 11.1261 17.3859C15.2735 15.0214 19.3941 12.6083 23.5281 10.2199C25.3732 9.15399 27.2239 8.09816 29.0556 7.00988C29.4001 6.77871 29.8056 6.65527 30.2205 6.65527C30.6354 6.65527 31.041 6.77871 31.3855 7.00988C34.7534 8.9864 38.1513 10.9171 41.5366 12.8656C44.09 14.3358 46.6447 15.8035 49.2006 17.2686C49.3836 17.3729 49.5616 17.4845 49.7454 17.5871C50.0443 17.746 50.2915 17.987 50.4577 18.2818C50.6239 18.5766 50.7023 18.9129 50.6836 19.2508C50.6884 25.1177 50.6884 30.9847 50.6836 36.8516C50.6955 36.9959 50.6798 37.1412 50.6373 37.2797C50.4344 37.4757 50.3611 37.2558 50.2872 37.1515C49.9829 36.7234 49.7097 36.2726 49.4269 35.8295C47.1622 32.2844 44.8898 28.744 42.6099 25.2084C41.8438 24.0134 41.068 22.8232 40.31 21.6234C40.1331 21.3434 40.1011 21.3393 39.9242 21.64C38.7804 23.5753 37.6374 25.5109 36.495 27.447C36.4323 27.5546 36.4053 27.6793 36.4178 27.8032C36.4304 27.9272 36.4818 28.0439 36.5647 28.1368C37.5067 29.6566 38.4468 31.1774 39.3852 32.6993L44.1966 40.4821C44.8458 41.5338 45.4961 42.5846 46.1475 43.6345C46.2684 43.7752 46.3364 43.9538 46.3398 44.1393C46.2096 44.3982 45.9381 44.4708 45.7121 44.5885C45.3412 44.8563 44.9335 45.0691 44.5017 45.2203C44.2688 45.1622 44.1864 44.952 44.076 44.78C42.5864 42.4565 41.1159 40.1213 39.6361 37.7922C38.114 35.3981 36.5993 32.9951 35.0707 30.6035C34.8747 30.2967 34.8434 30.2947 34.6592 30.6035C33.3295 32.8405 32.0181 35.0881 30.6851 37.3227C30.6169 37.4274 30.5834 37.5509 30.5893 37.6757C30.5952 37.8006 30.6403 37.9204 30.718 38.0182C32.5135 40.7856 34.2677 43.5773 36.0442 46.3584C36.5396 47.1335 37.0387 47.9057 37.5252 48.6864C37.6201 48.8381 37.75 48.9895 37.664 49.1948C37.1976 49.5576 36.6944 49.8704 36.1626 50.1281C34.5033 51.0935 32.8432 52.0577 31.1822 53.0204C30.9162 53.1922 30.6061 53.2836 30.2894 53.2836C29.9728 53.2836 29.6628 53.1922 29.3968 53.0204C26.9502 51.6051 24.4993 50.1961 22.0438 48.7935C21.8747 48.7263 21.7281 48.6123 21.6214 48.4648V48.4648Z" fill="#2D374B"/>
<path d="M50.5652 37.338C50.5689 37.1931 50.5761 37.0487 50.5761 36.9042C50.5761 31.0505 50.5781 25.1971 50.5819 19.344C50.6026 18.989 50.5193 18.6357 50.3421 18.3274C50.1649 18.0191 49.9016 17.7692 49.5845 17.6085C43.4378 14.0848 37.2956 10.5531 31.1579 7.01338C30.8815 6.83356 30.5591 6.73745 30.2294 6.73659C29.8997 6.73572 29.5768 6.83015 29.2995 7.00851C25.891 8.98949 22.4781 10.9653 19.061 12.936C16.3193 14.5232 13.5778 16.1107 10.8364 17.6986C10.5437 17.8505 10.3009 18.0837 10.1374 18.3701C9.97397 18.6566 9.89673 18.9842 9.91494 19.3136C9.92901 24.9303 9.93692 30.547 9.93882 36.1637C9.93882 36.2887 9.88811 36.4278 9.99727 36.5382C9.34803 37.6192 8.63469 38.658 7.95097 39.7158C7.6085 40.2455 7.26467 40.7742 6.9195 41.302C6.86431 41.3864 6.8006 41.4643 6.69145 41.6148C6.68333 41.4379 6.6748 41.3401 6.6748 41.2427C6.6748 33.8358 6.67616 26.4288 6.67887 19.0218C6.66078 18.1997 6.8695 17.3886 7.28208 16.6773C7.69466 15.966 8.29513 15.3821 9.01771 14.9897C11.4012 13.5743 13.8164 12.2117 16.2157 10.8216C18.2401 9.64929 20.2576 8.46808 22.2808 7.29377C24.1676 6.19818 26.0354 5.06973 27.9543 4.03379C28.6892 3.62455 29.5206 3.42017 30.3615 3.44201C31.2024 3.46386 32.022 3.71112 32.7347 4.15796C34.2766 5.03281 35.8121 5.92388 37.3496 6.80765C38.7957 7.64003 40.2418 8.47295 41.6877 9.30641C43.0203 10.0736 44.3533 10.8399 45.6866 11.6055C47.0086 12.3648 48.3307 13.1238 49.653 13.8823C50.2341 14.2162 50.8147 14.5506 51.3921 14.8906C52.0296 15.2513 52.5777 15.7509 52.9957 16.3524C53.4136 16.9538 53.6908 17.6417 53.8065 18.3649C53.8338 18.5737 53.8422 18.7846 53.8317 18.995C53.8317 26.2835 53.8326 33.5721 53.8345 40.8609C53.8383 41.5534 53.6889 42.2383 53.3969 42.8663C53.1049 43.4943 52.6777 44.0499 52.1457 44.4934C51.8422 44.7249 51.5158 44.9249 51.1718 45.0903C49.197 46.2424 47.2195 47.3898 45.239 48.5324C43.1347 49.7498 41.0294 50.965 38.9231 52.1783C36.8994 53.3507 34.8779 54.5275 32.8585 55.7085C32.3557 56.0468 31.7899 56.2801 31.1948 56.3947C30.2063 56.5876 29.182 56.4573 28.2733 56.023C27.2661 55.4829 26.285 54.897 25.2921 54.3281C23.9587 53.5631 22.626 52.7966 21.294 52.0286C20.9177 51.8122 20.5411 51.597 20.1643 51.383C20.0259 51.3043 19.9314 51.2243 20.0393 51.0438C20.5376 50.2091 21.0282 49.3696 21.524 48.5333C21.5415 48.5028 21.5861 48.4886 21.6182 48.4663C22.0802 48.6821 22.5275 48.9282 22.9572 49.2028C25.133 50.4471 27.3054 51.6976 29.4743 52.9541C29.7249 53.1126 30.016 53.1952 30.3124 53.1921C30.6089 53.1889 30.8981 53.1001 31.1453 52.9363C33.2054 51.7275 35.276 50.5361 37.3422 49.3387C37.4445 49.2795 37.5492 49.2255 37.6531 49.1695C37.8479 48.9206 38.1081 48.7308 38.4046 48.6213C40.2712 47.5517 42.1239 46.461 43.99 45.3942C44.1458 45.3053 44.2862 45.1682 44.4891 45.1913L46.3176 44.1322C46.4292 43.8985 46.6674 43.823 46.867 43.7078C47.7869 43.1766 48.6983 42.6309 49.6263 42.1168C49.8948 41.9754 50.1168 41.7596 50.2657 41.4951C50.4147 41.2307 50.4841 40.9289 50.4657 40.626C50.4751 39.6951 50.4657 38.7639 50.4702 37.8326C50.4379 37.6617 50.4719 37.4848 50.5652 37.338V37.338Z" fill="#96BEDC"/>
<path d="M50.567 37.3374C50.5719 38.493 50.5974 39.6503 50.5715 40.8043C50.5787 41.0747 50.5108 41.3418 50.3755 41.576C50.2402 41.8102 50.0428 42.0024 49.805 42.1312C48.6412 42.7902 47.4985 43.4865 46.3242 44.1276C45.8572 43.2755 45.3179 42.4639 44.8074 41.6361C42.1564 37.3393 39.5024 33.0449 36.8454 28.7529C36.6864 28.4956 36.5406 28.2286 36.3629 27.9856C36.3051 27.9158 36.2734 27.828 36.2734 27.7374C36.2734 27.6468 36.3051 27.559 36.3629 27.4893C36.9971 26.4286 37.6209 25.3618 38.2486 24.2967L39.991 21.341C40.0219 21.2708 40.0762 21.2134 40.1447 21.1787C40.4478 21.6458 40.7534 22.1169 41.0585 22.5884C42.8915 25.4423 44.7241 28.2962 46.5563 31.1502C47.7988 33.0865 49.0412 35.023 50.2834 36.9596C50.3516 37.1034 50.448 37.2318 50.567 37.3374V37.3374Z" fill="#28A0F0"/>
<path d="M44.496 45.1873C43.7392 45.684 42.9367 46.1064 42.1568 46.5669C40.7427 47.3984 39.3196 48.2144 37.9006 49.0365C37.8195 49.0823 37.7383 49.1253 37.66 49.1696C37.642 49.0383 37.5856 48.9153 37.4977 48.8161C36.2342 46.8303 34.9704 44.8448 33.7066 42.8598C32.6681 41.2297 31.6265 39.6012 30.5821 37.9743C30.5113 37.8899 30.4703 37.7846 30.4654 37.6746C30.4604 37.5647 30.4917 37.4561 30.5545 37.3656C31.9506 35.0143 33.341 32.6595 34.7255 30.3011C34.7583 30.2468 34.7847 30.1835 34.8662 30.166C34.9799 30.1916 35.0074 30.3052 35.0614 30.39C37.5772 34.3528 40.093 38.3158 42.6088 42.2791C43.144 43.1227 43.6768 43.9684 44.2153 44.8104C44.2838 44.9529 44.3788 45.0811 44.4952 45.1881L44.496 45.1873Z" fill="#28A0F0"/>
</svg>
