<svg width="60" height="60" viewBox="0 0 60 60" fill="none" xmlns="http://www.w3.org/2000/svg">
<rect width="60" height="60" rx="30" fill="white"/>
<rect width="60" height="60" fill="#F5F5F5"/>
<path d="M10.7227 30C10.7227 19.2887 19.4059 10.6055 30.1172 10.6055V10.6055C40.8285 10.6055 49.5117 19.2887 49.5117 30V30C49.5117 40.7113 40.8285 49.3945 30.1172 49.3945H19.2078C14.5216 49.3945 10.7227 45.5956 10.7227 40.9094V30Z" fill="#F30D46"/>
<path d="M19.1334 33.7429H18.4593V35.5664H17.2141V30.401H19.2469C19.8595 30.401 20.3384 30.537 20.6837 30.809C21.029 31.081 21.2017 31.4653 21.2017 31.962C21.2017 32.3215 21.1283 32.6195 20.9817 32.856C20.8374 33.0925 20.6104 33.2841 20.3006 33.4307L21.379 35.5132V35.5664H20.0451L19.1334 33.7429ZM18.4593 32.7815H19.2469C19.4834 32.7815 19.6608 32.72 19.7791 32.597C19.8997 32.4717 19.96 32.2978 19.96 32.0755C19.96 31.8532 19.8997 31.6793 19.7791 31.554C19.6584 31.4263 19.481 31.3624 19.2469 31.3624H18.4593V32.7815Z" fill="white"/>
<path d="M23.756 35.6374C23.1671 35.6374 22.6905 35.4623 22.3263 35.1123C21.962 34.7599 21.7799 34.3023 21.7799 33.7394V33.64C21.7799 33.2474 21.8521 32.9009 21.9963 32.6006C22.143 32.3002 22.3558 32.0684 22.6349 31.9052C22.914 31.7397 23.2451 31.6569 23.6283 31.6569C24.1675 31.6569 24.5932 31.8248 24.9054 32.1606C25.2176 32.4941 25.3737 32.9601 25.3737 33.5584V34.0232H22.9968C23.0394 34.2384 23.1328 34.4075 23.2771 34.5305C23.4213 34.6535 23.6082 34.715 23.8376 34.715C24.216 34.715 24.5116 34.5825 24.7245 34.3176L25.2708 34.9633C25.1218 35.1691 24.9102 35.3334 24.6358 35.4564C24.3638 35.577 24.0705 35.6374 23.756 35.6374ZM23.6212 32.5793C23.2711 32.5793 23.063 32.8111 22.9968 33.2746H24.203V33.1824C24.2077 32.9908 24.1592 32.843 24.0575 32.7389C23.9558 32.6325 23.8104 32.5793 23.6212 32.5793Z" fill="white"/>
<path d="M29.4216 33.6755C29.4216 34.2715 29.2868 34.7481 29.0172 35.1052C28.7499 35.46 28.3881 35.6374 27.9316 35.6374C27.5792 35.6374 27.2895 35.5085 27.0624 35.2507V37.0422H25.8668V31.7278H26.9844L27.0198 32.0826C27.2493 31.7988 27.5508 31.6569 27.9245 31.6569C28.3975 31.6569 28.7653 31.8319 29.0278 32.1819C29.2903 32.5296 29.4216 33.0085 29.4216 33.6187V33.6755ZM28.226 33.601C28.226 32.9198 28.0274 32.5793 27.63 32.5793C27.3462 32.5793 27.157 32.681 27.0624 32.8844V34.3957C27.1665 34.6085 27.358 34.715 27.6371 34.715C28.0179 34.715 28.2142 34.3862 28.226 33.7287V33.601Z" fill="white"/>
<path d="M31.2132 35.5664H30.0141V30.1172H31.2132V35.5664Z" fill="white"/>
<path d="M34.1152 35.5664C34.0726 35.4884 34.0348 35.3736 34.0016 35.2223C33.7817 35.499 33.4742 35.6374 33.0793 35.6374C32.7174 35.6374 32.4099 35.5286 32.1569 35.311C31.9038 35.091 31.7773 34.8155 31.7773 34.4844C31.7773 34.0681 31.931 33.7535 32.2385 33.5407C32.5459 33.3278 32.9929 33.2214 33.5795 33.2214H33.9484V33.0192C33.9484 32.6668 33.7959 32.4906 33.4908 32.4906C33.207 32.4906 33.0651 32.6301 33.0651 32.9092H31.8695C31.8695 32.5379 32.0268 32.2363 32.3413 32.0045C32.6583 31.7728 33.0615 31.6569 33.5511 31.6569C34.0407 31.6569 34.4274 31.7763 34.7112 32.0152C34.995 32.2541 35.1404 32.5816 35.1475 32.9979V34.6972C35.1523 35.0496 35.2067 35.3193 35.3107 35.5061V35.5664H34.1152ZM33.3666 34.7859C33.5156 34.7859 33.6386 34.754 33.7356 34.6901C33.8349 34.6263 33.9059 34.5541 33.9484 34.4737V33.86H33.6008C33.1845 33.86 32.9764 34.0468 32.9764 34.4205C32.9764 34.5293 33.013 34.618 33.0863 34.6866C33.1597 34.7528 33.2531 34.7859 33.3666 34.7859Z" fill="white"/>
<path d="M37.4358 34.715C37.6037 34.715 37.7338 34.67 37.826 34.5802C37.9183 34.4879 37.9632 34.3602 37.9608 34.197H39.0819C39.0819 34.618 38.9305 34.9633 38.6278 35.2329C38.3274 35.5025 37.9396 35.6374 37.4642 35.6374C36.906 35.6374 36.4661 35.4623 36.1444 35.1123C35.8228 34.7623 35.662 34.2774 35.662 33.6578V33.6081C35.662 33.2202 35.7329 32.8785 35.8748 32.5828C36.0191 32.2848 36.226 32.0566 36.4957 31.8981C36.7653 31.7373 37.0846 31.6569 37.4535 31.6569C37.9526 31.6569 38.3487 31.7952 38.642 32.072C38.9353 32.3487 39.0819 32.7235 39.0819 33.1966H37.9608C37.9608 32.9979 37.9124 32.8453 37.8154 32.7389C37.7184 32.6325 37.5883 32.5793 37.4251 32.5793C37.1153 32.5793 36.9344 32.7768 36.8824 33.1717C36.8658 33.2971 36.8575 33.4697 36.8575 33.6897C36.8575 34.0752 36.9036 34.3425 36.9959 34.4915C37.0881 34.6405 37.2348 34.715 37.4358 34.715Z" fill="white"/>
<path d="M41.4447 35.6374C40.8557 35.6374 40.3792 35.4623 40.0149 35.1123C39.6507 34.7599 39.4686 34.3023 39.4686 33.7394V33.64C39.4686 33.2474 39.5407 32.9009 39.685 32.6006C39.8316 32.3002 40.0445 32.0684 40.3236 31.9052C40.6027 31.7397 40.9338 31.6569 41.3169 31.6569C41.8562 31.6569 42.2819 31.8248 42.5941 32.1606C42.9063 32.4941 43.0624 32.9601 43.0624 33.5584V34.0232H40.6854C40.728 34.2384 40.8214 34.4075 40.9657 34.5305C41.11 34.6535 41.2968 34.715 41.5262 34.715C41.9047 34.715 42.2003 34.5825 42.4132 34.3176L42.9595 34.9633C42.8105 35.1691 42.5988 35.3334 42.3245 35.4564C42.0525 35.577 41.7592 35.6374 41.4447 35.6374ZM41.3098 32.5793C40.9598 32.5793 40.7517 32.8111 40.6854 33.2746H41.8917V33.1824C41.8964 32.9908 41.8479 32.843 41.7462 32.7389C41.6445 32.6325 41.499 32.5793 41.3098 32.5793Z" fill="white"/>
<path d="M18.289 38.9935L18.3281 39.444C18.6 39.0963 18.9655 38.9225 19.4243 38.9225C19.9091 38.9225 20.2367 39.1153 20.407 39.5008C20.6672 39.1153 21.0432 38.9225 21.5351 38.9225C22.3133 38.9225 22.713 39.3932 22.7343 40.3345V42.832H21.5351V40.409C21.5351 40.2127 21.502 40.0696 21.4358 39.9797C21.3696 39.8898 21.249 39.8449 21.0739 39.8449C20.8374 39.8449 20.6612 39.9501 20.5453 40.1606L20.5489 40.2103V42.832H19.3498V40.4161C19.3498 40.215 19.3179 40.0696 19.254 39.9797C19.1901 39.8898 19.0683 39.8449 18.8886 39.8449C18.6592 39.8449 18.4842 39.9501 18.3635 40.1606V42.832H17.168V38.9935H18.289Z" fill="white"/>
<path d="M25.2744 42.903C24.6855 42.903 24.2089 42.728 23.8447 42.3779C23.4804 42.0255 23.2983 41.5679 23.2983 41.005V40.9056C23.2983 40.513 23.3705 40.1665 23.5147 39.8662C23.6614 39.5658 23.8742 39.334 24.1533 39.1708C24.4324 39.0053 24.7635 38.9225 25.1467 38.9225C25.6859 38.9225 26.1116 39.0904 26.4238 39.4263C26.736 39.7598 26.8921 40.2257 26.8921 40.8241V41.2888H24.5152C24.5578 41.504 24.6512 41.6731 24.7955 41.7961C24.9397 41.9191 25.1266 41.9806 25.356 41.9806C25.7344 41.9806 26.03 41.8481 26.2429 41.5833L26.7892 42.2289C26.6402 42.4347 26.4286 42.5991 26.1542 42.7221C25.8822 42.8427 25.5889 42.903 25.2744 42.903ZM25.1396 39.8449C24.7895 39.8449 24.5814 40.0767 24.5152 40.5402H25.7214V40.448C25.7261 40.2564 25.6776 40.1086 25.5759 40.0045C25.4742 39.8981 25.3288 39.8449 25.1396 39.8449Z" fill="white"/>
<path d="M28.1161 41.6719C28.3053 41.6719 28.4626 41.7287 28.5879 41.8422C28.7133 41.9534 28.7759 42.0965 28.7759 42.2715C28.7759 42.4465 28.7133 42.5908 28.5879 42.7043C28.4626 42.8155 28.3053 42.8711 28.1161 42.8711C27.9245 42.8711 27.766 42.8143 27.6407 42.7008C27.5177 42.5872 27.4562 42.4442 27.4562 42.2715C27.4562 42.0988 27.5177 41.9558 27.6407 41.8422C27.766 41.7287 27.9245 41.6719 28.1161 41.6719Z" fill="white"/>
<g clip-path="url(#clip0_867_1898)">
<rect width="59.9414" height="60" fill="#E84142"/>
<g clip-path="url(#clip1_867_1898)">
<path fill-rule="evenodd" clip-rule="evenodd" d="M21.8288 43.1601H16.3115C15.1522 43.1601 14.5795 43.1601 14.2304 42.9385C13.8532 42.6958 13.6228 42.2939 13.5948 41.8503C13.5739 41.4416 13.8602 40.9425 14.4329 39.9446L28.0556 16.1182C28.6353 15.1064 28.9286 14.6005 29.2988 14.4134C29.6968 14.2125 30.1718 14.2125 30.5698 14.4134C30.94 14.6005 31.2333 15.1064 31.8129 16.1182L34.6135 20.9691L34.6278 20.9938C35.2539 22.0793 35.5714 22.6297 35.71 23.2074C35.8636 23.838 35.8636 24.5033 35.71 25.1339C35.5703 25.716 35.256 26.2705 34.6205 27.3723L27.4648 39.9238L27.4463 39.956C26.8161 41.0503 26.4967 41.605 26.054 42.0234C25.5722 42.481 24.9925 42.8134 24.3569 43.0008C23.7773 43.1601 23.1278 43.1601 21.8288 43.1601ZM35.7616 43.1601H43.6672C44.8335 43.1601 45.4203 43.1601 45.7697 42.9317C46.1467 42.689 46.384 42.28 46.4052 41.8368C46.4253 41.4412 46.1452 40.9616 45.5963 40.0216C45.5774 39.9896 45.5584 39.9571 45.5391 39.924L41.5792 33.202L41.5341 33.1263C40.9776 32.1926 40.6968 31.7211 40.336 31.5388C39.9381 31.3378 39.4699 31.3378 39.072 31.5388C38.7088 31.7259 38.4155 32.2179 37.8359 33.2089L33.89 39.9309L33.8764 39.954C33.2988 40.9434 33.0101 41.4379 33.031 41.8435C33.0589 42.2871 33.2894 42.6958 33.6665 42.9385C34.0087 43.1601 34.5953 43.1601 35.7616 43.1601Z" fill="white"/>
</g>
</g>
<defs>
<clipPath id="clip0_867_1898">
<rect width="59.9485" height="60" fill="white"/>
</clipPath>
<clipPath id="clip1_867_1898">
<rect width="32.8125" height="32.8125" fill="white" transform="translate(13.5938 12.3047)"/>
</clipPath>
</defs>
</svg>
