<svg width="60" height="60" viewBox="0 0 60 60" fill="none" xmlns="http://www.w3.org/2000/svg">
<path d="M18.3475 25.2125L30 13.56L41.658 25.2175L48.438 18.4375L30 0L11.568 18.432L18.3478 25.212L18.3475 25.2125ZM0 30L6.78024 23.2188L13.56 29.9986L6.77976 36.7788L0 30ZM18.3475 34.7882L30 46.44L41.6578 34.7827L48.4414 41.5591L48.438 41.5627L30 60L11.568 41.568L11.5584 41.5584L18.3482 34.7875L18.3475 34.7882ZM46.44 30.0029L53.2202 23.2226L60 30.0024L53.22 36.7826L46.44 30.0029Z" fill="#F3BA2F"/>
<path d="M36.8765 29.9961H36.8794L30.0001 23.1162L24.9152 28.1997L24.3311 28.7841L23.1263 29.9891L23.1167 29.9985L23.1263 30.0083L30.0001 36.8831L36.8799 30.0033L36.8832 29.9994L36.877 29.9961" fill="#F3BA2F"/>
</svg>
