<svg width="60" height="60" viewBox="0 0 60 60" fill="none" xmlns="http://www.w3.org/2000/svg">
<path d="M30 60C46.5685 60 60 46.5685 60 30C60 13.4315 46.5685 0 30 0C13.4315 0 0 13.4315 0 30C0 46.5685 13.4315 60 30 60Z" fill="#1969FF"/>
<path d="M28.1808 9.54026C29.1915 9.00741 30.7294 9.00741 31.7402 9.54026L42.0536 14.9775C42.6624 15.2984 42.9967 15.7766 43.0565 16.2702H43.0664V43.6002C43.053 44.1387 42.7155 44.6736 42.0536 45.0225L31.7402 50.4598C30.7294 50.9926 29.1915 50.9926 28.1808 50.4598L17.8674 45.0225C17.2082 44.6751 16.8919 44.1364 16.8763 43.6002C16.8747 43.5452 16.8745 43.4999 16.8762 43.4625L16.8763 16.4542C16.8747 16.4162 16.8747 16.3784 16.8762 16.3407L16.8763 16.2702H16.8809C16.9267 15.7711 17.2458 15.3051 17.8674 14.9775L28.1808 9.54026ZM41.4258 31.4648L31.737 36.5895C30.7278 37.1233 29.1921 37.1233 28.1828 36.5895L18.5156 31.4763V43.5158L28.1828 48.6018C28.7541 48.9075 29.3481 49.2053 29.9266 49.2183L29.9599 49.2188C30.5372 49.2206 31.0977 48.9271 31.666 48.6492L41.4258 43.4719V31.4648ZM15.2592 43.0078C15.2592 44.0555 15.3799 44.7441 15.6195 45.2292C15.8181 45.6313 16.1161 45.9386 16.6603 46.3126L16.6913 46.3337C16.8107 46.415 16.9423 46.5001 17.1024 46.6001L17.2912 46.7168L17.8711 47.0698L17.0394 48.457L16.3904 48.0616L16.2813 47.994C16.0937 47.8771 15.9382 47.7767 15.7931 47.678C14.2423 46.6232 13.6639 45.4731 13.6525 43.0807L13.6523 43.0078H15.2592ZM29.1797 24.1992C29.1046 24.225 29.0343 24.255 28.9702 24.2889L18.6725 29.7436C18.6616 29.7493 18.6513 29.755 18.6415 29.7606L18.6328 29.7656L18.649 29.7749L18.6725 29.7877L28.9702 35.2424C29.0343 35.2763 29.1046 35.3062 29.1797 35.332V24.1992ZM30.8203 24.1992V35.332C30.8954 35.3062 30.9657 35.2763 31.0299 35.2424L41.3275 29.7877C41.3383 29.782 41.3486 29.7763 41.3584 29.7707L41.3672 29.7656L41.351 29.7563L41.3275 29.7436L31.0299 24.2889C30.9657 24.255 30.8954 24.225 30.8203 24.1992ZM41.4258 18.2227L32.168 23.0859L41.4258 27.9492V18.2227ZM18.5156 18.2227V27.9492L27.7734 23.0859L18.5156 18.2227ZM31.0208 10.9938C30.4849 10.7104 29.5151 10.7104 28.9792 10.9938L18.6725 16.4428C18.6617 16.4485 18.6514 16.4542 18.6415 16.4598L18.6328 16.4648L18.649 16.4741L18.6725 16.4869L28.9792 21.9359C29.5151 22.2193 30.4849 22.2193 31.0208 21.9359L41.3275 16.4869C41.3383 16.4811 41.3486 16.4755 41.3584 16.4699L41.3672 16.4648L41.351 16.4556L41.3275 16.4428L31.0208 10.9938ZM42.9606 11.543L43.6096 11.9384L43.7187 12.006C43.9063 12.1229 44.0618 12.2233 44.2069 12.322C45.7577 13.3768 46.3361 14.5269 46.3475 16.9193L46.3477 16.9922H44.7408C44.7408 15.9444 44.6201 15.2559 44.3805 14.7707C44.1819 14.3686 43.8839 14.0614 43.3398 13.6875L43.3087 13.6662C43.1893 13.585 43.0577 13.4999 42.8976 13.3999L42.7088 13.2832L42.1289 12.9302L42.9606 11.543Z" fill="white"/>
</svg>
