<svg width="200" height="211" viewBox="0 0 200 211" fill="none" xmlns="http://www.w3.org/2000/svg">
<path fill-rule="evenodd" clip-rule="evenodd" d="M109.651 0.0816503C110.909 0.027403 112.174 0 113.445 0C161.248 0 200 38.752 200 86.5551C200 114.29 186.955 138.978 166.667 154.819V142.667C166.667 140.188 166.667 138.949 166.462 137.919C165.62 133.688 162.312 130.38 158.081 129.538C157.051 129.333 155.811 129.333 153.333 129.333C150.855 129.333 149.616 129.333 148.586 129.538C144.354 130.38 141.047 133.688 140.205 137.919C140 138.949 140 140.188 140 142.667V157.709V168.881C140 168.908 140 168.934 140 168.96C138.246 169.525 136.468 170.036 134.667 170.489V144.994V100C134.667 97.5218 134.667 96.2827 134.462 95.2523C133.62 91.021 130.312 87.7133 126.081 86.8716C125.051 86.6666 123.811 86.6666 121.333 86.6666C118.855 86.6666 117.616 86.6666 116.586 86.8716C112.354 87.7133 109.047 91.021 108.205 95.2523C108 96.2827 108 97.5218 108 100V144.994V171.509C108 172.112 108 172.413 108.017 172.711C108.021 172.789 108.026 172.866 108.032 172.944C106.228 172.832 104.439 172.666 102.667 172.446V120.758V45.3333C102.667 42.8552 102.667 41.6161 102.462 40.5857C101.62 36.3543 98.3123 33.0466 94.0809 32.2049C93.0506 32 91.8115 32 89.3333 32C86.8552 32 85.6161 32 84.5857 32.2049C80.3543 33.0466 77.0466 36.3543 76.2049 40.5857C76 41.6161 76 42.8552 76 45.3333V120.758V164.613C74.1862 163.742 72.4076 162.809 70.6666 161.817V137.377V130.667C70.6666 128.188 70.6666 126.949 70.4617 125.919C69.62 121.688 66.3123 118.38 62.0809 117.538C61.0506 117.333 59.8115 117.333 57.3333 117.333C54.8552 117.333 53.6161 117.333 52.5857 117.538C48.3543 118.38 45.0466 121.688 44.2049 125.919C44 126.949 44 128.188 44 130.667V137.377V138.228C33.2518 123.807 26.8899 105.924 26.8899 86.5551C26.8899 75.4338 28.9873 64.8024 32.8083 55.0349C25.801 67.5861 21.85 81.7964 21.85 96.8489C21.85 147.785 67.092 189.076 122.901 189.076C150.941 189.076 176.313 178.653 194.62 161.82C175.926 191.333 142.983 210.925 105.463 210.925C47.2173 210.925 0 163.708 0 105.463C0 47.2173 47.2173 0 105.463 0C106.865 0 108.262 0.0273853 109.651 0.0816503Z" fill="url(#paint0_linear_632_1302)"/>
<defs>
<linearGradient id="paint0_linear_632_1302" x1="100" y1="0" x2="100" y2="210.925" gradientUnits="userSpaceOnUse">
<stop stop-color="#6BE5C9"/>
<stop offset="1" stop-color="#3375ED"/>
</linearGradient>
</defs>
</svg>
