<svg xmlns="http://www.w3.org/2000/svg" viewBox="0 0 177.01 223.25"><defs><style>.cls-1{fill:#e870aa;}.cls-2{fill:#fad16b;}.cls-3{fill:#6a5ea9;}.cls-4{fill:#72b2e0;}.cls-5{fill:#c3509d;}.cls-6{fill:#f79e42;}.cls-7{fill:#514da0;}.cls-8{fill:#4b84c3;}.cls-9{fill:#b1489b;}.cls-10{fill:#f37035;}</style></defs><g id="Layer_4" data-name="Layer 4"><path class="cls-1" d="M118.58,7a3.24,3.24,0,0,0-2.47,1.23L30.81,116.62a3.24,3.24,0,0,0-.69,2h88.46Z" transform="translate(-30.12 -6.99)"/><path class="cls-2" d="M207.11,118.62a3.19,3.19,0,0,0-.68-2.1L121.27,8.23A3.24,3.24,0,0,0,118.58,7V118.62Z" transform="translate(-30.12 -6.99)"/><path class="cls-3" d="M30.81,120.63,116.19,229a3.24,3.24,0,0,0,2.39,1.23V118.62H30.12A3.2,3.2,0,0,0,30.81,120.63Z" transform="translate(-30.12 -6.99)"/><path class="cls-4" d="M118.58,230.24a3.26,3.26,0,0,0,2.78-1.23l85.07-108.49a3.15,3.15,0,0,0,.68-1.9H118.58Z" transform="translate(-30.12 -6.99)"/><path class="cls-5" d="M70.18,99.18c-24.13,4.13-40.06,11.27-40.06,19.37S46.4,134,71,138.06a51.77,51.77,0,0,1-.78-38.88Z" transform="translate(-30.12 -6.99)"/><path class="cls-6" d="M207.12,118.55c0-8.11-16-15.25-40.15-19.39a51.87,51.87,0,0,1-.78,38.92C190.8,134,207.12,126.76,207.12,118.55Z" transform="translate(-30.12 -6.99)"/><path class="cls-7" d="M71,138.06a51.81,51.81,0,0,0,47.62,31.39V141.7A292.77,292.77,0,0,1,71,138.06Z" transform="translate(-30.12 -6.99)"/><path class="cls-8" d="M118.62,141.7h0v27.75a51.81,51.81,0,0,0,47.61-31.37,292.73,292.73,0,0,1-46.53,3.62Z" transform="translate(-30.12 -6.99)"/><path class="cls-9" d="M70.18,99.18A51.77,51.77,0,0,0,71,138.06a292.77,292.77,0,0,0,47.62,3.64V65.85A51.8,51.8,0,0,0,70.18,99.18Z" transform="translate(-30.12 -6.99)"/><path class="cls-10" d="M167,99.16a51.82,51.82,0,0,0-48.39-33.31V141.7h1.08a292.73,292.73,0,0,0,46.53-3.62A51.87,51.87,0,0,0,167,99.16Z" transform="translate(-30.12 -6.99)"/></g></svg>