<svg width="231" height="80" viewBox="0 0 231 80" fill="none" xmlns="http://www.w3.org/2000/svg">
<path fill-rule="evenodd" clip-rule="evenodd" d="M34.6572 6.6928C35.0547 6.67565 35.4545 6.66699 35.8563 6.66699C50.9652 6.66699 63.2135 18.9152 63.2135 34.0242C63.2135 42.7903 59.0905 50.5934 52.6779 55.6001V51.7593C52.6779 50.976 52.6779 50.5844 52.6131 50.2587C52.3471 48.9213 51.3016 47.8758 49.9642 47.6098C49.6386 47.545 49.2469 47.545 48.4637 47.545C47.6804 47.545 47.2888 47.545 46.9631 47.6098C45.6257 47.8758 44.5802 48.9213 44.3142 50.2587C44.2494 50.5844 44.2494 50.976 44.2494 51.7593V56.5136V60.0449C44.2494 60.0532 44.2495 60.0615 44.2496 60.0699C43.6951 60.2484 43.133 60.4097 42.5637 60.5532V52.4948V38.2737C42.5637 37.4905 42.5637 37.0988 42.499 36.7732C42.2329 35.4358 41.1875 34.3903 39.8501 34.1243C39.5244 34.0595 39.1328 34.0595 38.3495 34.0595C37.5662 34.0595 37.1746 34.0595 36.8489 34.1243C35.5115 34.3903 34.4661 35.4358 34.2001 36.7732C34.1353 37.0988 34.1353 37.4905 34.1353 38.2737V52.4948V60.8755C34.1353 61.0659 34.1353 61.1611 34.1406 61.2554C34.1419 61.2799 34.1436 61.3044 34.1455 61.3288C33.5753 61.2937 33.0098 61.241 32.4496 61.1714V44.8345V20.9954C32.4496 20.2121 32.4496 19.8205 32.3848 19.4948C32.1188 18.1574 31.0733 17.112 29.7359 16.8459C29.4103 16.7811 29.0186 16.7811 28.2354 16.7811C27.4521 16.7811 27.0605 16.7811 26.7348 16.8459C25.3974 17.112 24.3519 18.1574 24.0859 19.4948C24.0211 19.8205 24.0211 20.2121 24.0211 20.9954V44.8345V58.696C23.4479 58.4205 22.8857 58.1256 22.3354 57.8121V50.0873V47.9665C22.3354 47.1832 22.3354 46.7916 22.2706 46.4659C22.0046 45.1285 20.9592 44.083 19.6218 43.817C19.2961 43.7522 18.9045 43.7522 18.1212 43.7522C17.3379 43.7522 16.9463 43.7522 16.6206 43.817C15.2832 44.083 14.2378 45.1285 13.9717 46.4659C13.907 46.7916 13.907 47.1832 13.907 47.9665V50.0873V50.3564C10.5098 45.7983 8.49902 40.1461 8.49902 34.0242C8.49902 30.5092 9.16196 27.1489 10.3696 24.0617C8.15486 28.0288 6.90606 32.5202 6.90606 37.2778C6.90606 53.3769 21.2056 66.4279 38.845 66.4279C47.7074 66.4279 55.7268 63.1334 61.5132 57.8131C55.6045 67.141 45.1921 73.3337 33.3333 73.3337C14.9238 73.3337 0 58.4098 0 40.0003C0 21.5908 14.9238 6.66699 33.3333 6.66699C33.7767 6.66699 34.218 6.67565 34.6572 6.6928Z" fill="white"/>
<path d="M109.673 11.9193C108.858 5.15929 103.742 1.27196 96.9673 1.27196C89.2355 1.27196 83.333 6.73138 83.333 16.3068C83.333 25.8536 89.1354 31.3416 96.9673 31.3416C104.47 31.3416 109.001 26.3538 109.673 20.9659L103.413 20.9373C102.827 24.0672 100.369 25.8679 97.0673 25.8679C92.6226 25.8679 89.6071 22.5665 89.6071 16.3068C89.6071 10.2185 92.5797 6.74567 97.1102 6.74567C100.497 6.74567 102.941 8.70363 103.413 11.9193H109.673Z" fill="white"/>
<path d="M120.084 18.2505C120.098 15.4207 121.828 13.7629 124.314 13.7629C126.787 13.7629 128.245 15.3493 128.23 18.0504V30.9415H134.319V16.9642C134.333 11.8192 131.303 8.70363 126.73 8.70363C123.4 8.70363 121.17 10.2757 120.17 12.8625H119.913V1.67213H113.996V30.9415H120.084V18.2505Z" fill="white"/>
<path d="M145.37 31.3559C148.614 31.3559 150.715 29.9411 151.787 27.8973H151.958V30.9415H157.732V16.1353C157.732 10.9045 153.301 8.70363 148.414 8.70363C143.154 8.70363 139.696 11.219 138.853 15.2206L144.483 15.678C144.898 14.2202 146.198 13.1483 148.385 13.1483C150.457 13.1483 151.644 14.1916 151.644 15.9924V16.0781C151.644 17.493 150.143 17.6788 146.327 18.0504C141.982 18.4505 138.081 19.9083 138.081 24.8103C138.081 29.155 141.182 31.3559 145.37 31.3559ZM147.113 27.1542C145.241 27.1542 143.898 26.2824 143.898 24.6103C143.898 22.8953 145.312 22.052 147.456 21.7519C148.785 21.5661 150.958 21.2517 151.686 20.7658V23.0953C151.686 25.3963 149.786 27.1542 147.113 27.1542Z" fill="white"/>
<path d="M162.455 30.9415H168.544V8.98946H162.455V30.9415ZM165.514 6.15971C167.329 6.15971 168.815 4.77342 168.815 3.07271C168.815 1.38629 167.329 0 165.514 0C163.713 0 162.227 1.38629 162.227 3.07271C162.227 4.77342 163.713 6.15971 165.514 6.15971Z" fill="white"/>
<path d="M179.509 18.2505C179.523 15.4207 181.21 13.7629 183.668 13.7629C186.112 13.7629 187.584 15.3635 187.569 18.0504V30.9415H193.658V16.9642C193.658 11.8478 190.656 8.70363 186.083 8.70363C182.824 8.70363 180.466 10.3043 179.48 12.8625H179.223V8.98946H173.421V30.9415H179.509V18.2505Z" fill="white"/>
<path d="M83.8475 50.3019V79.5713H89.85V60.449H90.093L97.6676 79.4283H101.755L109.33 60.5205H109.573V79.5713H115.575V50.3019H107.943L99.8828 69.9673H99.5398L91.4793 50.3019H83.8475Z" fill="white"/>
<path d="M130.563 80C135.994 80 139.653 77.356 140.51 73.2829L134.879 72.9113C134.265 74.5835 132.693 75.4553 130.663 75.4553C127.619 75.4553 125.69 73.4401 125.69 70.1673V70.153H140.639V68.4809C140.639 61.0207 136.123 57.3334 130.32 57.3334C123.861 57.3334 119.673 61.921 119.673 68.6953C119.673 75.6553 123.803 80 130.563 80ZM125.69 66.38C125.819 63.879 127.719 61.8782 130.42 61.8782C133.064 61.8782 134.894 63.7647 134.908 66.38H125.69Z" fill="white"/>
<path d="M156.288 57.6193H152.158V52.3599H146.07V57.6193H143.069V62.1926H146.07V73.6259C146.041 77.9277 148.971 80.0572 153.387 79.8714C154.959 79.8142 156.074 79.4998 156.689 79.2997L155.731 74.7693C155.431 74.8264 154.788 74.9693 154.216 74.9693C153.001 74.9693 152.158 74.512 152.158 72.8256V62.1926H156.288V57.6193Z" fill="white"/>
<path d="M160.254 79.5713H166.343V67.1518C166.343 64.4507 168.315 62.5927 171.002 62.5927C171.845 62.5927 173.003 62.7357 173.574 62.9215V57.5192C173.031 57.3906 172.274 57.3048 171.659 57.3048C169.201 57.3048 167.186 58.734 166.385 61.4494H166.157V57.6193H160.254V79.5713Z" fill="white"/>
<path d="M176.722 79.5713H182.81V57.6193H176.722V79.5713ZM179.78 54.7895C181.595 54.7895 183.082 53.4032 183.082 51.7025C183.082 50.0161 181.595 48.6298 179.78 48.6298C177.98 48.6298 176.493 50.0161 176.493 51.7025C176.493 53.4032 177.98 54.7895 179.78 54.7895Z" fill="white"/>
<path d="M197.606 80C203.451 80 207.124 76.57 207.41 71.525H201.664C201.307 73.8689 199.764 75.1837 197.677 75.1837C194.833 75.1837 192.989 72.797 192.989 68.5952C192.989 64.4507 194.847 62.0782 197.677 62.0782C199.907 62.0782 201.336 63.5503 201.664 65.7369H207.41C207.152 60.6634 203.308 57.3334 197.577 57.3334C190.917 57.3334 186.801 61.9496 186.801 68.681C186.801 75.3552 190.846 80 197.606 80Z" fill="white"/>
<path d="M229.573 63.879C229.029 59.8345 225.771 57.3334 220.226 57.3334C214.609 57.3334 210.908 59.9345 210.922 64.1648C210.908 67.4519 212.98 69.5814 217.267 70.4389L221.069 71.1963C222.984 71.5822 223.856 72.2825 223.884 73.383C223.856 74.6835 222.441 75.6125 220.312 75.6125C218.139 75.6125 216.696 74.6835 216.324 72.897L210.336 73.2115C210.908 77.4132 214.481 80 220.297 80C225.985 80 230.058 77.0988 230.073 72.7684C230.058 69.5957 227.986 67.6949 223.727 66.8231L219.754 66.0228C217.71 65.5797 216.953 64.8794 216.967 63.8218C216.953 62.507 218.439 61.6495 220.326 61.6495C222.441 61.6495 223.699 62.8071 223.999 64.222L229.573 63.879Z" fill="white"/>
</svg>
