<svg xmlns="http://www.w3.org/2000/svg" viewBox="0 0 187.52 134.44"><defs><style>.cls-1{fill:#ec174f;}.cls-2{fill:#f79e42;}.cls-3{fill:#5658a6;}.cls-4{fill:#6865ad;}.cls-5{fill:#a02b91;}.cls-6{fill:#f47920;}</style></defs><g id="Layer_4" data-name="Layer 4"><path class="cls-1" d="M55,132.71c-22.23,21.41-33.8,40.15-28,48.6s27.89,4.52,56.42-8.6a65.35,65.35,0,0,1-28.37-40Z" transform="translate(-25.5 -51.37)"/><path class="cls-2" d="M211.56,55.88c-5.75-8.47-27.47-4.6-55.62,8.23a65.38,65.38,0,0,1,26.77,41.13C205.46,83.51,217.37,64.43,211.56,55.88Z" transform="translate(-25.5 -51.37)"/><path class="cls-3" d="M83.38,172.71a65.34,65.34,0,0,0,71.91-1l-19.67-28.94A370.83,370.83,0,0,1,83.38,172.71Z" transform="translate(-25.5 -51.37)"/><path class="cls-4" d="M135.67,142.74l0,0,19.67,28.94a65.34,65.34,0,0,0,27.42-66.47,368.57,368.57,0,0,1-46,36.75Z" transform="translate(-25.5 -51.37)"/><path class="cls-5" d="M55,132.71a65.35,65.35,0,0,0,28.37,40,370.83,370.83,0,0,0,52.24-29.94L102.81,94.48l-21-30.83A65.35,65.35,0,0,0,55,132.71Z" transform="translate(-25.5 -51.37)"/><path class="cls-6" d="M155.94,64.11a65.34,65.34,0,0,0-74.08-.46l21,30.83,32.81,48.29,0,0,1.08-.75a368.57,368.57,0,0,0,46-36.75,65.38,65.38,0,0,0-26.77-41.13Z" transform="translate(-25.5 -51.37)"/></g></svg>