<svg width="677" height="84" viewBox="0 0 677 84" fill="none" xmlns="http://www.w3.org/2000/svg">
<path d="M20.6861 43.6977C16.925 43.6977 16.925 48.1628 11.2833 48.1628C9.74351 48.1628 2.82707 48.1628 0.00601188 48.3721C0.00528055 53.0116 0.00601188 79.3458 0 83.0086H677V48.3721C671.364 47.8837 669.483 46.907 665.717 46.907C660.075 46.907 660.075 45.093 656.314 45.093C650.672 45.093 650.672 44.3953 645.031 44.3953C639.389 44.3953 639.389 46.8372 633.747 46.8372C628.106 46.8372 628.106 38.3954 622.464 38.3954C618.703 38.3954 618.703 40.2791 613.061 40.2791C607.419 40.2791 607.419 40.1395 601.778 40.1395C596.136 40.1395 596.136 32.1163 590.494 32.1163C584.853 32.1163 584.853 25.8372 581.092 25.8372C575.45 25.8372 575.45 40.6977 569.808 40.6977C564.167 40.6977 564.167 23.8837 558.525 23.8837C552.883 23.8837 552.883 36.7907 547.242 36.7907C543.481 36.7907 543.481 21.3721 537.839 21.3721C532.197 21.3721 532.197 17.186 526.556 17.186C520.914 17.186 520.914 29.6046 515.272 29.6046C509.631 29.6046 509.631 20.6744 505.869 20.6744C500.228 20.6744 500.228 21.7907 494.586 21.7907C488.944 21.7907 488.944 39.093 483.303 39.093C477.661 39.093 477.661 24.7907 472.019 24.7907C468.258 24.7907 468.258 25.4884 462.617 25.4884C456.975 25.4884 456.975 40.8372 451.333 40.8372C445.692 40.8372 445.692 3.86047 440.05 3.86047C434.408 3.86047 434.408 9.7907 430.647 9.7907C425.006 9.7907 425.006 24.3023 419.364 24.3023C413.722 24.3023 413.722 9.44186 408.081 9.44186C402.439 9.44186 402.439 32.3953 396.797 32.3953C393.036 32.3953 393.036 39.6512 387.394 39.6512C381.753 39.6512 381.753 47.1163 376.111 47.1163C370.469 47.1163 370.469 32.3953 364.828 32.3953C359.186 32.3953 359.186 1 355.425 1C349.783 1 349.783 45.2326 344.142 45.2326C338.5 45.2326 338.5 32.6047 332.858 32.6047C327.217 32.6047 327.217 25.6977 321.575 25.6977C317.814 25.6977 317.814 22.2791 312.172 22.2791C306.531 22.2791 306.531 13.8372 300.889 13.8372C295.247 13.8372 295.247 10.8372 289.606 10.8372C283.964 10.8372 283.964 12.093 280.203 12.093C274.561 12.093 274.561 41.814 268.919 41.814C263.278 41.814 263.278 48.3023 257.636 48.3023C251.994 48.3023 251.994 41.9535 246.353 41.9535C242.592 41.9535 242.592 28.0698 236.95 28.0698C231.308 28.0698 231.308 37.6279 225.667 37.6279C220.025 37.6279 220.025 42.5814 214.383 42.5814C208.742 42.5814 208.742 24.3721 204.981 24.3721C199.339 24.3721 199.339 35.8837 193.697 35.8837C188.056 35.8837 188.056 43.0698 182.414 43.0698C176.772 43.0698 176.772 22.6977 171.131 22.6977C167.369 22.6977 167.369 11.814 161.728 11.814C156.086 11.814 156.086 16.6279 150.444 16.6279C144.803 16.6279 144.803 43.1395 139.161 43.1395C133.519 43.1395 133.519 19 129.758 19C124.117 19 124.117 39.7907 118.475 39.7907C112.833 39.7907 112.833 30.3721 107.192 30.3721C101.55 30.3721 101.55 26.1163 95.9083 26.1163C92.1472 26.1163 92.1472 35.3953 86.5056 35.3953C80.8639 35.3953 80.8639 28.7674 75.2222 28.7674C69.5806 28.7674 69.5806 48.1628 63.9389 48.1628C58.2972 48.1628 58.2972 43.3488 54.5361 43.3488C48.8944 43.3488 48.8944 38.2558 43.2528 38.2558C37.6111 38.2558 37.6111 43.6279 31.9694 43.6279C26.3278 43.6279 26.3278 43.6977 20.6861 43.6977Z" fill="url(#paint0_linear_867_1996)"/>
<path opacity="0.05" d="M0 48.3721C5.64167 48.3721 5.64167 48.1628 11.2833 48.1628C16.925 48.1628 16.925 43.6977 20.6861 43.6977C26.3278 43.6977 26.3278 43.6279 31.9694 43.6279C37.6111 43.6279 37.6111 38.2558 43.2528 38.2558C48.8944 38.2558 48.8944 43.3488 54.5361 43.3488C58.2972 43.3488 58.2972 48.1628 63.9389 48.1628C69.5806 48.1628 69.5806 28.7674 75.2222 28.7674C80.8639 28.7674 80.8639 35.3954 86.5056 35.3954C92.1472 35.3954 92.1472 26.1163 95.9083 26.1163C101.55 26.1163 101.55 30.3721 107.192 30.3721C112.833 30.3721 112.833 39.7907 118.475 39.7907C124.117 39.7907 124.117 19 129.758 19C133.519 19 133.519 43.1395 139.161 43.1395C144.803 43.1395 144.803 16.6279 150.444 16.6279C156.086 16.6279 156.086 11.814 161.728 11.814C167.369 11.814 167.369 22.6977 171.131 22.6977C176.772 22.6977 176.772 43.0698 182.414 43.0698C188.056 43.0698 188.056 35.8837 193.697 35.8837C199.339 35.8837 199.339 24.3721 204.981 24.3721C208.742 24.3721 208.742 42.5814 214.383 42.5814C220.025 42.5814 220.025 37.6279 225.667 37.6279C231.308 37.6279 231.308 28.0698 236.95 28.0698C242.592 28.0698 242.592 41.9535 246.353 41.9535C251.994 41.9535 251.994 48.3023 257.636 48.3023C263.278 48.3023 263.278 41.814 268.919 41.814C274.561 41.814 274.561 12.093 280.203 12.093C283.964 12.093 283.964 10.8372 289.606 10.8372C295.247 10.8372 295.247 13.8372 300.889 13.8372C306.531 13.8372 306.531 22.2791 312.172 22.2791C317.814 22.2791 317.814 25.6977 321.575 25.6977C327.217 25.6977 327.217 32.6047 332.858 32.6047C338.5 32.6047 338.5 45.2326 344.142 45.2326C349.783 45.2326 349.783 1 355.425 1C359.186 1 359.186 32.3954 364.828 32.3954C370.469 32.3954 370.469 47.1163 376.111 47.1163C381.753 47.1163 381.753 39.6512 387.394 39.6512C393.036 39.6512 393.036 32.3954 396.797 32.3954C402.439 32.3954 402.439 9.44186 408.081 9.44186C413.722 9.44186 413.722 24.3023 419.364 24.3023C425.006 24.3023 425.006 9.7907 430.647 9.7907C434.408 9.7907 434.408 3.86047 440.05 3.86047C445.692 3.86047 445.692 40.8372 451.333 40.8372C456.975 40.8372 456.975 25.4884 462.617 25.4884C468.258 25.4884 468.258 24.7907 472.019 24.7907C477.661 24.7907 477.661 39.093 483.303 39.093C488.944 39.093 488.944 21.7907 494.586 21.7907C500.228 21.7907 500.228 20.6744 505.869 20.6744C509.631 20.6744 509.631 29.6047 515.272 29.6047C520.914 29.6047 520.914 17.186 526.556 17.186C532.197 17.186 532.197 21.3721 537.839 21.3721C543.481 21.3721 543.481 36.7907 547.242 36.7907C552.883 36.7907 552.883 23.8837 558.525 23.8837C564.167 23.8837 564.167 40.6977 569.808 40.6977C575.45 40.6977 575.45 25.8372 581.092 25.8372C584.853 25.8372 584.853 32.1163 590.494 32.1163C596.136 32.1163 596.136 40.1395 601.778 40.1395C607.419 40.1395 607.419 40.2791 613.061 40.2791C618.703 40.2791 618.703 38.3954 622.464 38.3954C628.106 38.3954 628.106 46.8372 633.747 46.8372C639.389 46.8372 639.389 44.3954 645.031 44.3954C650.672 44.3954 650.672 45.093 656.314 45.093C660.075 45.093 660.075 46.907 665.717 46.907C671.358 46.907 671.358 48.3721 677 48.3721" stroke="white"/>
<defs>
<linearGradient id="paint0_linear_867_1996" x1="338.505" y1="1" x2="338.505" y2="83.0086" gradientUnits="userSpaceOnUse">
<stop stop-color="white" stop-opacity="0.03"/>
<stop offset="1" stop-color="white" stop-opacity="0"/>
</linearGradient>
</defs>
</svg>
