<svg width="60" height="60" viewBox="0 0 60 60" fill="none" xmlns="http://www.w3.org/2000/svg">
<path d="M30 60C46.5685 60 60 46.5685 60 30C60 13.4315 46.5685 0 30 0C13.4315 0 0 13.4315 0 30C0 46.5685 13.4315 60 30 60Z" fill="#FF0420"/>
<path d="M21.2562 37.9736C19.4699 37.9736 18.0064 37.5532 16.8655 36.7126C15.7397 35.857 15.1768 34.6412 15.1768 33.065C15.1768 32.7348 15.2143 32.3294 15.2893 31.849C15.4846 30.7683 15.7622 29.4698 16.1225 27.9537C17.1432 23.8257 19.7777 21.7617 24.0258 21.7617C25.1816 21.7617 26.2173 21.9568 27.1331 22.3471C28.0488 22.7223 28.7693 23.2928 29.2946 24.0584C29.82 24.8089 30.0828 25.7096 30.0828 26.7603C30.0828 27.0756 30.0452 27.4734 29.9701 27.9537C29.745 29.2897 29.4747 30.5882 29.1595 31.849C28.6341 33.9056 27.726 35.4442 26.435 36.465C25.1441 37.4707 23.4179 37.9736 21.2562 37.9736ZM21.5714 34.7312C22.4122 34.7312 23.1251 34.4835 23.7105 33.9882C24.311 33.4928 24.7388 32.7348 24.9939 31.714C25.3392 30.303 25.602 29.072 25.7821 28.0213C25.8421 27.706 25.8721 27.3834 25.8721 27.053C25.8721 25.687 25.1591 25.004 23.7331 25.004C22.8924 25.004 22.1719 25.2517 21.5714 25.747C20.9861 26.2425 20.5657 27.0006 20.3106 28.0213C20.0404 29.027 19.7701 30.258 19.5 31.714C19.4399 32.0142 19.4099 32.3294 19.4099 32.6596C19.4099 34.0407 20.1305 34.7312 21.5714 34.7312Z" fill="white"/>
<path d="M31.1165 37.748C30.9514 37.748 30.8237 37.6954 30.7337 37.5903C30.6586 37.4702 30.6362 37.3352 30.6662 37.185L33.7735 22.5492C33.8035 22.3841 33.886 22.249 34.0211 22.1439C34.1563 22.0389 34.2988 21.9863 34.4489 21.9863H40.4384C42.1046 21.9863 43.4406 22.3316 44.4463 23.022C45.4671 23.7126 45.9775 24.7108 45.9775 26.0168C45.9775 26.392 45.9325 26.7824 45.8424 27.1876C45.4671 28.9139 44.7091 30.1899 43.5682 31.0155C42.4424 31.8411 40.8962 32.2539 38.9298 32.2539H35.89L34.8543 37.185C34.8242 37.3502 34.7416 37.4852 34.6066 37.5903C34.4715 37.6954 34.3288 37.748 34.1788 37.748H31.1165ZM39.0874 29.1466C39.7178 29.1466 40.2657 28.9739 40.7311 28.6287C41.2114 28.2834 41.5267 27.7881 41.6768 27.1426C41.7218 26.8874 41.7444 26.6622 41.7444 26.4671C41.7444 26.0318 41.6168 25.7015 41.3616 25.4764C41.1063 25.2362 40.6711 25.1162 40.0556 25.1162H37.3536L36.498 29.1466H39.0874Z" fill="white"/>
</svg>
