<svg width="60" height="53" viewBox="0 0 60 53" fill="none" xmlns="http://www.w3.org/2000/svg">
<path d="M45.4308 16.1358C44.3342 15.5091 42.9243 15.5091 41.671 16.1358L32.8982 21.3055L26.9452 24.5953L18.329 29.765C17.2324 30.3916 15.8225 30.3916 14.5692 29.765L7.8329 25.6919C6.73629 25.0653 5.953 23.812 5.953 22.4021V14.5692C5.953 13.3159 6.57963 12.0627 7.8329 11.2794L14.5692 7.36293C15.6658 6.73629 17.0757 6.73629 18.329 7.36293L25.0653 11.436C26.1619 12.0627 26.9452 13.3159 26.9452 14.7259V19.8956L32.8982 16.4491V11.1227C32.8982 9.86945 32.2715 8.61619 31.0183 7.8329L18.4856 0.469974C17.389 -0.156658 15.9791 -0.156658 14.7258 0.469974L1.8799 7.98956C0.626632 8.61619 0 9.86945 0 11.1227V25.8486C0 27.1018 0.626632 28.3551 1.8799 29.1384L14.5692 36.5013C15.6658 37.1279 17.0757 37.1279 18.329 36.5013L26.9452 31.4883L32.8982 28.0418L41.5144 23.0287C42.611 22.4021 44.0209 22.4021 45.2742 23.0287L52.0104 26.9452C53.1071 27.5718 53.8903 28.8251 53.8903 30.235V38.0679C53.8903 39.3212 53.2637 40.5744 52.0104 41.3577L45.4308 45.2742C44.3342 45.9008 42.9243 45.9008 41.671 45.2742L34.9347 41.3577C33.8381 40.7311 33.0548 39.4778 33.0548 38.0679V33.0548L27.1018 36.5013V41.671C27.1018 42.9243 27.7285 44.1776 28.9817 44.9608L41.671 52.3238C42.7676 52.9504 44.1775 52.9504 45.4308 52.3238L58.1201 44.9608C59.2167 44.3342 60 43.0809 60 41.671V26.7885C60 25.5353 59.3734 24.282 58.1201 23.4987L45.4308 16.1358Z" fill="#8247E5"/>
</svg>
