<svg width="60" height="60" viewBox="0 0 60 60" fill="none" xmlns="http://www.w3.org/2000/svg">
<path d="M9.74809 41.8877C10.1101 41.5256 10.608 41.3145 11.1359 41.3145H59.0164C59.8914 41.3145 60.3288 42.3704 59.7103 42.9889L50.2519 52.4473C49.8899 52.8094 49.3921 53.0206 48.8641 53.0206H0.98358C0.108637 53.0206 -0.328834 51.9646 0.28966 51.3461L9.74809 41.8877Z" fill="url(#paint0_linear_867_3523)"/>
<path d="M9.74809 6.57324C10.1252 6.21119 10.623 6 11.1359 6H59.0164C59.8914 6 60.3288 7.05597 59.7103 7.67446L50.2519 17.1329C49.8899 17.4949 49.3921 17.7061 48.8641 17.7061H0.98358C0.108637 17.7061 -0.328834 16.6502 0.28966 16.0317L9.74809 6.57324Z" fill="url(#paint1_linear_867_3523)"/>
<path d="M50.2519 24.1172C49.8899 23.7551 49.3921 23.5439 48.8641 23.5439H0.98358C0.108637 23.5439 -0.328834 24.5999 0.28966 25.2184L9.74809 34.6768C10.1101 35.0389 10.608 35.2501 11.1359 35.2501H59.0164C59.8914 35.2501 60.3288 34.1941 59.7103 33.5756L50.2519 24.1172Z" fill="url(#paint2_linear_867_3523)"/>
<defs>
<linearGradient id="paint0_linear_867_3523" x1="54.4424" y1="0.34974" x2="21.3053" y2="63.8207" gradientUnits="userSpaceOnUse">
<stop stop-color="#00FFA3"/>
<stop offset="1" stop-color="#DC1FFF"/>
</linearGradient>
<linearGradient id="paint1_linear_867_3523" x1="39.9531" y1="-7.21486" x2="6.81598" y2="56.256" gradientUnits="userSpaceOnUse">
<stop stop-color="#00FFA3"/>
<stop offset="1" stop-color="#DC1FFF"/>
</linearGradient>
<linearGradient id="paint2_linear_867_3523" x1="47.1516" y1="-3.45678" x2="14.0145" y2="60.0141" gradientUnits="userSpaceOnUse">
<stop stop-color="#00FFA3"/>
<stop offset="1" stop-color="#DC1FFF"/>
</linearGradient>
</defs>
</svg>
