<svg width="60" height="60" viewBox="0 0 60 60" fill="none" xmlns="http://www.w3.org/2000/svg">
<path d="M30 60C46.5685 60 60 46.5685 60 30C60 13.4315 46.5685 0 30 0C13.4315 0 0 13.4315 0 30C0 46.5685 13.4315 60 30 60Z" fill="#172852"/>
<path d="M24.165 13.4072C27.678 12.0932 31.632 12.0902 35.211 13.1702C39.87 14.6162 43.803 18.1322 45.858 22.5452C46.425 23.8022 46.968 25.1132 47.022 26.5112C44.403 24.9932 41.532 24.0092 38.655 23.1122C34.053 21.4532 29.235 20.3012 24.879 18.0212C23.865 17.4152 22.572 16.7942 22.296 15.5312C22.185 14.4392 23.34 13.8302 24.165 13.4072" fill="#FFD83D"/>
<path d="M13.5601 24.0267C14.5771 21.2667 16.2451 18.7047 18.5101 16.8057C19.0861 21.5427 21.1021 26.1207 24.4321 29.5647C28.4251 33.7137 34.1131 36.2607 39.9001 36.1647C42.1981 36.2367 44.4451 35.7057 46.6861 35.2767C44.4811 43.2447 35.7481 48.5337 27.6571 47.2617C22.7731 46.6377 18.2641 43.7457 15.5431 39.6627C12.4741 35.1507 11.7001 29.1597 13.5601 24.0267V24.0267Z" fill="#FFD83D"/>
<path d="M38.6553 23.1123C41.5323 24.0093 44.4033 24.9933 47.0223 26.5113L47.1993 26.6043C47.4423 28.4313 47.6193 30.2943 47.2953 32.1243C45.9783 31.5663 44.9103 30.5853 43.7943 29.7183C41.6463 27.9303 39.4533 25.8843 38.6553 23.1123" fill="#FF6F03"/>
</svg>
